<?xml version="1.0" encoding="UTF-8"?><svg id="Layer_1" xmlns="http://www.w3.org/2000/svg" viewBox="0 0 961.046 662.084"><defs><style>.cls-1{fill:#bf866b;}</style></defs><path class="cls-1" d="M961.046,537.445V121.85L543.802,0,0,143.427v369.745l543.776,148.912,417.271-124.64ZM32,169.505l377.703,39.766,1.337.141,108.544-12.904v263.544l-107.131-13.441-1.387-.175-379.067,40.738V169.505ZM929.046,511.425l-361.462-45.35V190.802l361.462-42.97v363.593ZM877.167,529.103l-309.582,92.472v-131.313l309.582,38.84ZM567.584,166.634V40.281l307.49,89.798-307.49,36.554ZM519.584,39.482v132.858l-108.706,12.923-317.343-33.411,426.048-112.37ZM91.155,504.957l319.697-34.358,108.732,13.642v138.04l-428.429-117.324Z"/></svg>